<svg width="24" height="24" viewBox="0 0 24 24" fill="none" xmlns="http://www.w3.org/2000/svg">
<path d="M22 5.995C22 5.445 21.554 5 21.005 5H12.995C12.7311 5 12.478 5.10483 12.2914 5.29143C12.1048 5.47803 12 5.73111 12 5.995C12 6.25889 12.1048 6.51197 12.2914 6.69857C12.478 6.88517 12.7311 6.99 12.995 6.99H21.005C21.2689 6.99 21.522 6.88517 21.7086 6.69857C21.8952 6.51197 22 6.25889 22 5.995Z" fill="#F9F9F9"/>
<path d="M22 11.9999C22 11.4499 21.554 11.0049 21.005 11.0049H2.995C2.73111 11.0049 2.47803 11.1097 2.29143 11.2963C2.10483 11.4829 2 11.736 2 11.9999C2 12.2638 2.10483 12.5169 2.29143 12.7035C2.47803 12.8901 2.73111 12.9949 2.995 12.9949H21.005C21.2689 12.9949 21.522 12.8901 21.7086 12.7035C21.8952 12.5169 22 12.2638 22 11.9999Z" fill="#F9F9F9"/>
<path d="M21.005 17.01C21.2689 17.01 21.522 17.1148 21.7086 17.3014C21.8952 17.488 22 17.7411 22 18.005C22 18.2689 21.8952 18.522 21.7086 18.7086C21.522 18.8952 21.2689 19 21.005 19H8.995C8.73111 19 8.47803 18.8952 8.29143 18.7086C8.10483 18.522 8 18.2689 8 18.005C8 17.7411 8.10483 17.488 8.29143 17.3014C8.47803 17.1148 8.73111 17.01 8.995 17.01H21.005Z" fill="#F9F9F9"/>
</svg>
